<?xml version="1.0" encoding="utf-8"?>
<!-- Generator: Adobe Illustrator 28.0.0, SVG Export Plug-In . SVG Version: 6.00 Build 0)  -->
<svg version="1.1" id="Layer_1" xmlns:xodm="http://www.corel.com/coreldraw/odm/2003"
	 xmlns="http://www.w3.org/2000/svg" xmlns:xlink="http://www.w3.org/1999/xlink" x="0px" y="0px" viewBox="0 0 496 594"
	 style="enable-background:new 0 0 496 594;" xml:space="preserve" preserveAspectRatio="xMidYMid meet">
<style type="text/css">
	.st0{fill-rule:evenodd;clip-rule:evenodd;fill:#FF4711; }
	.st1{fill:#ffffff;}
	.st2{fill:#FF4711;}
</style>
<g id="Layer_x0020_1">
	<g id="_6WW">
		<path class="st0" d="M46.4,520.3c0-12.8-10.4-23.2-23.2-23.2C10.4,497.1,0,507.4,0,520.3c0,12.8,10.4,23.2,23.2,23.2
			C36,543.5,46.4,533.1,46.4,520.3z M46.4,40.5c0-12.8-10.4-23.2-23.2-23.2C10.4,17.2,0,27.6,0,40.5c0,12.8,10.4,23.2,23.2,23.2
			C36,63.7,46.4,53.3,46.4,40.5z M132.7,128.1c0-12.8-10.4-23.2-23.2-23.2c-12.8,0-23.2,10.4-23.2,23.2s10.4,23.2,23.2,23.2
			C122.3,151.3,132.7,140.9,132.7,128.1z M217.6,200.8c0-12.8-10.4-23.2-23.2-23.2c-12.8,0-23.2,10.4-23.2,23.2
			c0,12.8,10.4,23.2,23.2,23.2C207.2,224.1,217.6,213.7,217.6,200.8z M303.9,288.4c0-12.8-10.4-23.2-23.2-23.2
			c-12.8,0-23.2,10.4-23.2,23.2c0,12.8,10.4,23.2,23.2,23.2C293.5,311.7,303.9,301.3,303.9,288.4z M171.2,359.9
			c0,12.8,10.4,23.2,23.2,23.2c12.8,0,23.2-10.4,23.2-23.2c0-12.8-10.4-23.2-23.2-23.2C181.6,336.7,171.2,347.1,171.2,359.9z
			 M86.3,447.5c0,12.8,10.4,23.2,23.2,23.2c12.8,0,23.2-10.4,23.2-23.2c0-12.8-10.4-23.2-23.2-23.2
			C96.6,424.3,86.3,434.7,86.3,447.5z"/>
		<path class="st1" d="M234.8,40.4c0,22.3-18.1,40.4-40.4,40.4c-22.3,0-40.4-18.1-40.4-40.4C153.9,18.1,172,0,194.4,0
			C216.7,0,234.8,18.1,234.8,40.4z"/>
		<path class="st1" d="M234.8,520.3c0,22.3-18.1,40.4-40.4,40.4c-22.3,0-40.4-18.1-40.4-40.4c0-22.3,18.1-40.4,40.4-40.4
			C216.7,479.8,234.8,497.9,234.8,520.3z"/>
		<path class="st1" d="M321.1,447.5c0,22.3-18.1,40.4-40.4,40.4c-22.3,0-40.4-18.1-40.4-40.4c0-22.3,18.1-40.4,40.4-40.4
			C303,407.1,321.1,425.2,321.1,447.5z"/>
		<path class="st1" d="M492.2,288.4c0,22.3-18.1,40.4-40.4,40.4c-22.3,0-40.4-18.1-40.4-40.4c0-22.3,18.1-40.4,40.4-40.4
			C474.1,248,492.2,266.1,492.2,288.4z"/>
		<path class="st1" d="M406,200.8c0,22.3-18.1,40.4-40.4,40.4c-22.3,0-40.4-18.1-40.4-40.4c0-22.3,18.1-40.4,40.4-40.4
			C387.9,160.4,406,178.5,406,200.8z"/>
		<path class="st1" d="M406,359.9c0,22.3-18.1,40.4-40.4,40.4c-22.3,0-40.4-18.1-40.4-40.4c0-22.3,18.1-40.4,40.4-40.4
			C387.9,319.4,406,337.6,406,359.9z"/>
		<path class="st1" d="M321.1,128.1c0,22.3-18.1,40.4-40.4,40.4c-22.3,0-40.4-18.1-40.4-40.4c0-22.3,18.1-40.4,40.4-40.4
			C303,87.6,321.1,105.7,321.1,128.1z"/>
		<path class="st2" d="M144.7,289.8c0,17.9-14.5,32.4-32.4,32.4S80,307.6,80,289.8c0-17.9,14.5-32.3,32.3-32.3
			S144.7,271.9,144.7,289.8z"/>
	</g>
</g>
</svg>
