<svg xmlns="http://www.w3.org/2000/svg" width="20.001" height="20" viewBox="0 0 20.001 20">
  <path id="Path_13" data-name="Path 13" d="M12.2,10.016l7.478-7.479a1.1,1.1,0,0,0,0-1.547L19.026.335a1.1,1.1,0,0,0-1.547,0L10,7.813,2.522.335a1.1,1.1,0,0,0-1.547,0L.32.991a1.1,1.1,0,0,0,0,1.547L7.8,10.016.32,17.494a1.1,1.1,0,0,0,0,1.547l.655.655a1.1,1.1,0,0,0,1.547,0L10,12.218,17.479,19.7a1.085,1.085,0,0,0,.773.319h0a1.085,1.085,0,0,0,.774-.319l.655-.655a1.1,1.1,0,0,0,0-1.547Z" transform="translate(0 -0.016)" fill="#fff"/>
</svg>
