<svg version="1.2" xmlns="http://www.w3.org/2000/svg" viewBox="0 0 634 1147" width="634" height="1147">
	<title>Ellipse 5 copy 6</title>
	<style>
		.s0 { opacity: .2;fill: #cdd2d2 } 
	</style>
	<path id="Ellipse 5 copy 6" class="s0" d="m51 1.9c27.2 0 49.3 22.1 49.3 49.3 0 27.2-22.1 49.3-49.3 49.3-27.2 0-49.3-22.1-49.3-49.3 0-27.2 22.1-49.3 49.3-49.3zm177.4 177.4c27.2 0 49.3 22.1 49.3 49.3 0 27.2-22.1 49.3-49.3 49.3-27.2 0-49.3-22.1-49.3-49.3 0-27.2 22.1-49.3 49.3-49.3zm177.5 177.4c27.2 0 49.2 22.1 49.2 49.3 0 27.2-22 49.2-49.2 49.2-27.3 0-49.3-22-49.3-49.2 0-27.2 22-49.3 49.3-49.3zm177.4 177.4c27.2 0 49.3 22 49.3 49.3 0 27.2-22.1 49.2-49.3 49.2-27.2 0-49.3-22-49.3-49.2 0-27.3 22.1-49.3 49.3-49.3zm-177.4 157.7c27.2 0 49.2 22 49.2 49.2 0 27.2-22 49.3-49.2 49.3-27.3 0-49.3-22.1-49.3-49.3 0-27.2 22-49.2 49.3-49.2zm-177.5 177.3c27.2 0 49.3 22.1 49.3 49.3 0 27.2-22.1 49.3-49.3 49.3-27.2 0-49.3-22.1-49.3-49.3 0-27.2 22.1-49.3 49.3-49.3zm-177.4 177.4c27.2 0 49.3 22.1 49.3 49.3 0 27.2-22.1 49.3-49.3 49.3-27.2 0-49.3-22.1-49.3-49.3 0-27.2 22.1-49.3 49.3-49.3z"/>
</svg>