<?xml version="1.0" encoding="utf-8"?>
<!-- Generator: Adobe Illustrator 28.0.0, SVG Export Plug-In . SVG Version: 6.00 Build 0)  -->
<svg version="1.1" id="Layer_1" xmlns:xodm="http://www.corel.com/coreldraw/odm/2003"
	 xmlns="http://www.w3.org/2000/svg" xmlns:xlink="http://www.w3.org/1999/xlink" x="0px" y="0px" viewBox="0 0 1019 594"
	 style="enable-background:new 0 0 1019 594;" xml:space="preserve">
<style type="text/css">
	.st0{fill:#FF4711;}
	.st1{fill-rule:evenodd;clip-rule:evenodd;fill:#273248;}
	.st2{fill-rule:evenodd;clip-rule:evenodd;fill:#FF4711;}
</style>
<g id="Layer_x0020_1">
	<g id="_6WW">
		<path class="st0" d="M556,565.2c-19.2,0-28.8-7-28.8-20.9v-2.6c0-14,9.6-20.9,28.8-20.9h65.4v15.7H556c-5.2,0-7.8,1.8-7.8,5.2v2.6
			c0,3.5,2.6,5.2,7.8,5.2h36.6c19.2,0,28.8,7,28.8,20.9v2.6c0,14-9.6,20.9-28.8,20.9h-65.3l0-15.7h65.4c5.2,0,7.9-1.7,7.9-5.2v-2.6
			c0-3.5-2.6-5.2-7.9-5.2H556z M692.1,549.5c5.2,0,7.9-1.7,7.9-5.2v-2.6c0-3.5-2.6-5.2-7.9-5.2h-65.4l0-15.7h65.3
			c19.2,0,28.8,7,28.8,20.9v2.6c0,13.9-9.6,20.9-28.8,20.9h-44.5V594h-20.9v-44.5H692.1L692.1,549.5z M726.1,546.9
			c0-17.4,10.5-26.2,31.4-26.2h31.4c20.9,0,31.4,8.7,31.4,26.2v26.2c0,14-10.4,20.9-31.4,20.9h-31.4c-20.9,0-31.4-8.7-31.4-26.2
			V546.9z M799.3,546.9c0-7-3.5-10.5-10.5-10.5h-31.4c-7,0-10.5,3.5-10.5,10.5v20.9c0,7,3.5,10.5,10.5,10.5h31.4
			c7,0,10.5-3.5,10.5-10.5V546.9z M890.9,549.5c5.2,0,7.8-1.7,7.8-5.2v-2.6c0-3.5-2.6-5.2-7.8-5.2h-65.4l0.1-15.7h65.3
			c19.2,0,28.8,7,28.8,20.9v2.6c0,12.2-7.3,19-21.9,20.5l27.2,28.4h-26.2l-26.9-28h-25.5v28h-20.9v-43.7H890.9z M982.4,593.2h-20.9
			v-51h20.9V593.2z M961.5,536.4h-9.4h-27.2v-15.7h94.2v15.7h-28h-8.6H961.5L961.5,536.4z"/>
		<path class="st1" d="M677.9,329.7c-98.9,0-148.3-36-148.3-107.9v-13.5c0-71.9,49.4-107.9,148.3-107.9H1015v80.9H677.9
			c-27,0-40.4,9-40.4,27v13.5c0,18,13.4,27,40.4,27h188.8c98.9,0,148.3,35.9,148.3,107.9v13.4C1015,442,965.5,478,866.7,478H529.8
			l-0.3-80.9h337.1c27,0,40.5-9,40.5-27v-13.4c0-18.1-13.5-27-40.5-27H677.9L677.9,329.7z"/>
		<path class="st1" d="M480.9,181.3l-0.2-80.9H15.2v80.9C206.6,181.3,288.6,181.3,480.9,181.3z"/>
		<path class="st1" d="M607,478l-0.2-80.9H15.2V478C207.6,478,414.7,478,607,478z"/>
		<path class="st2" d="M480.9,329.7l-0.2-80.9H15.2v80.9C206.6,329.6,288.6,329.7,480.9,329.7z"/>
	</g>
</g>
</svg>
