<svg xmlns="http://www.w3.org/2000/svg" xmlns:xlink="http://www.w3.org/1999/xlink" viewBox="0 0 1440 810" width="1440" height="810" preserveAspectRatio="xMidYMid slice" style="width: 100%; height: 100%; transform: translate3d(0px, 0px, 0px); content-visibility: visible;"><defs><clipPath id="__lottie_element_454"><rect width="1440" height="810" x="0" y="0"></rect></clipPath><image xlink:href="http://beta.grow.ae/eswp/download.png"></image><g id="__lottie_element_458"><g transform="matrix(1,0,0,1,443.5,-285)" opacity="1" style="display: block;"><g opacity="1" transform="matrix(1,0,0,1,163.406005859375,330.1860046386719)"><path fill="rgb(255,254,255)" fill-opacity="1" d=" M91.27200317382812,91.4530029296875 C91.27200317382812,91.4530029296875 -4.679999828338623,142.51600646972656 -4.679999828338623,142.51600646972656 C-4.679999828338623,142.51600646972656 -91.27200317382812,-6.283999919891357 -91.27200317382812,-6.283999919891357 C-91.27200317382812,-6.283999919891357 -44.78099822998047,-142.51600646972656 -44.78099822998047,-142.51600646972656 C-44.78099822998047,-142.51600646972656 91.27200317382812,91.4530029296875 91.27200317382812,91.4530029296875z"></path></g><g opacity="1" transform="matrix(1,0,0,1,273.9840087890625,197.01199340820312)"><path fill="rgb(255,254,255)" fill-opacity="1" d=" M-91.58899688720703,-196.39500427246094 C-91.58899688720703,-196.39500427246094 -129.74200439453125,-84.5510025024414 -129.74200439453125,-84.5510025024414 C-129.74200439453125,-84.5510025024414 33.74399948120117,196.39500427246094 33.74399948120117,196.39500427246094 C33.74399948120117,196.39500427246094 129.74200439453125,145.3090057373047 129.74200439453125,145.3090057373047 C129.74200439453125,145.3090057373047 -56.268001556396484,-174.3470001220703 -56.268001556396484,-174.3470001220703 C-56.268001556396484,-174.3470001220703 -91.58899688720703,-196.39500427246094 -91.58899688720703,-196.39500427246094z"></path></g><g opacity="1" transform="matrix(1,0,0,1,52.83700180053711,475.59100341796875)"><path fill="rgb(255,254,255)" fill-opacity="1" d=" M-52.83700180053711,59.78900146484375 C-52.83700180053711,59.78900146484375 -6.381999969482422,-76.41000366210938 -6.381999969482422,-76.41000366210938 C-6.381999969482422,-76.41000366210938 52.83700180053711,25.344999313354492 52.83700180053711,25.344999313354492 C52.83700180053711,25.344999313354492 -43.1349983215332,76.40899658203125 -43.1349983215332,76.40899658203125 C-43.1349983215332,76.40899658203125 -52.83700180053711,59.78900146484375 -52.83700180053711,59.78900146484375z"></path></g><g opacity="1" transform="matrix(1,0,0,1,439.7239990234375,202.38099670410156)"><path fill="rgb(255,254,255)" fill-opacity="1" d=" M17.016000747680664,111.71900177001953 C17.016000747680664,111.71900177001953 113.00499725341797,60.62699890136719 113.00499725341797,60.62699890136719 C113.00499725341797,60.62699890136719 84.31800079345703,11.376999855041504 84.31800079345703,11.376999855041504 C84.31800079345703,11.376999855041504 -113.00499725341797,-111.71900177001953 -113.00499725341797,-111.71900177001953 C-113.00499725341797,-111.71900177001953 17.016000747680664,111.71900177001953 17.016000747680664,111.71900177001953z"></path></g></g></g><mask id="__lottie_element_458_1" mask-type="alpha"><use xlink:href="#__lottie_element_458"></use></mask><g id="__lottie_element_467"><g transform="matrix(1,0,0,1,781.5,237)" opacity="1" style="display: block;"><g opacity="1" transform="matrix(1,0,0,1,422.7250061035156,645.5640258789062)"><path fill="rgb(255,254,255)" fill-opacity="1" d=" M-249.51400756835938,294.4320068359375 C-249.51400756835938,294.4320068359375 265.64599609375,-258.8089904785156 265.64599609375,-258.8089904785156 C265.64599609375,-258.8089904785156 204.38900756835938,-294.4360046386719 204.38900756835938,-294.4360046386719 C204.38900756835938,-294.4360046386719 -265.64599609375,210.30799865722656 -265.64599609375,210.30799865722656 C-259.89300537109375,239.97799682617188 -254.53599548339844,268.1860046386719 -249.51699829101562,294.4360046386719"></path></g><g opacity="1" transform="matrix(1,0,0,1,625.9739990234375,634.7650146484375)"><path fill="rgb(255,254,255)" fill-opacity="1" d=" M-41.867000579833984,113.46800231933594 C-41.867000579833984,113.46800231933594 213.09300231933594,-160.35800170898438 213.09300231933594,-160.35800170898438 C213.09300231933594,-160.35800170898438 151.75999450683594,-195.9239959716797 151.75999450683594,-195.9239959716797 C151.75999450683594,-195.9239959716797 -213.0919952392578,195.9239959716797 -213.0919952392578,195.9239959716797 C-157.60899353027344,169.13499450683594 -99.53800201416016,141.14700317382812 -41.867000579833984,113.46800231933594z"></path></g><g opacity="1" transform="matrix(1,0,0,1,137.6959991455078,203.25100708007812)"><path fill="rgb(255,254,255)" fill-opacity="1" d=" M-82.62799835205078,115.11799621582031 C-82.62799835205078,115.11799621582031 98.5739974975586,-79.50800323486328 98.5739974975586,-79.50800323486328 C98.5739974975586,-79.50800323486328 37.3390007019043,-115.11799621582031 37.3390007019043,-115.11799621582031 C37.3390007019043,-115.11799621582031 -98.5739974975586,30.81399917602539 -98.5739974975586,30.81399917602539 C-93.49600219726562,57.683998107910156 -88.12000274658203,85.90499877929688 -82.62799835205078,115.11399841308594"></path></g><g opacity="1" transform="matrix(1,0,0,1,232.67599487304688,350.72900390625)"><path fill="rgb(255,254,255)" fill-opacity="1" d=" M-138.2969970703125,174.96400451660156 C-138.2969970703125,174.96400451660156 154.31300354003906,-139.29299926757812 154.31300354003906,-139.29299926757812 C154.31300354003906,-139.29299926757812 93.06300354003906,-174.96400451660156 93.06300354003906,-174.96400451660156 C93.06300354003906,-174.96400451660156 -154.31300354003906,90.70099639892578 -154.31300354003906,90.70099639892578 C-149.03500366210938,118.5270004272461 -143.68899536132812,146.71800231933594 -138.2969970703125,174.96299743652344"></path></g><g opacity="1" transform="matrix(1,0,0,1,327.69000244140625,498.1960144042969)"><path fill="rgb(255,254,255)" fill-opacity="1" d=" M-194.00900268554688,234.7239990234375 C-194.00900268554688,234.7239990234375 210.00799560546875,-199.11199951171875 210.00799560546875,-199.11199951171875 C210.00799560546875,-199.11199951171875 148.74200439453125,-234.7239990234375 148.74200439453125,-234.7239990234375 C148.74200439453125,-234.7239990234375 -210.00799560546875,150.54600524902344 -210.00799560546875,150.54600524902344 C-204.58999633789062,178.9739990234375 -199.23300170898438,207.18499755859375 -194.00799560546875,234.7239990234375"></path></g><g opacity="1" transform="matrix(1,0,0,1,908.22900390625,578.2310180664062)"><path fill="rgb(255,254,255)" fill-opacity="1" d=" M76.12999725341797,-19.222000122070312 C76.12999725341797,-19.222000122070312 20.200000762939453,-51.73899841308594 20.200000762939453,-51.73899841308594 C20.200000762939453,-51.73899841308594 -76.12999725341797,51.73899841308594 -76.12999725341797,51.73899841308594 C-16.225000381469727,23.41699981689453 36.319000244140625,-1.121000051498413 76.12799835205078,-19.224000930786133"></path></g><g opacity="1" transform="matrix(1,0,0,1,42.82500076293945,55.71500015258789)"><path fill="rgb(255,254,255)" fill-opacity="1" d=" M-42.82500076293945,-29.05500030517578 C-38.803001403808594,-7.39300012588501 -33.35599899291992,21.2450008392334 -26.924999237060547,55.27299880981445 C-26.924999237060547,55.27299880981445 42.82500076293945,-19.635000228881836 42.82500076293945,-19.635000228881836 C42.82500076293945,-19.635000228881836 -18.44300079345703,-55.27299880981445 -18.44300079345703,-55.27299880981445 C-18.44300079345703,-55.27299880981445 -42.82500076293945,-29.05500030517578 -42.82500076293945,-29.05500030517578z"></path></g></g></g><mask id="__lottie_element_467_1" mask-type="alpha"><use xlink:href="#__lottie_element_467"></use></mask></defs><g clip-path="url(#__lottie_element_454)"><g mask="url(#__lottie_element_467_1)" style="display: block;"><g class="png" transform="matrix(1.7760000228881836,0,0,1.7760000228881836,1278,813)" opacity="1"><image width="1000px" height="1000px" preserveAspectRatio="xMidYMid slice" xlink:href="http://beta.grow.ae/eswp/download.png"></image></g></g><g style="display: block;" transform="matrix(1,0,0,1,781.5,237)" opacity="0.024117073170746614"><g opacity="1" transform="matrix(1,0,0,1,422.7250061035156,645.5640258789062)"><path fill="rgb(255,254,255)" fill-opacity="1" d=" M-249.51400756835938,294.4320068359375 C-249.51400756835938,294.4320068359375 265.64599609375,-258.8089904785156 265.64599609375,-258.8089904785156 C265.64599609375,-258.8089904785156 204.38900756835938,-294.4360046386719 204.38900756835938,-294.4360046386719 C204.38900756835938,-294.4360046386719 -265.64599609375,210.30799865722656 -265.64599609375,210.30799865722656 C-259.89300537109375,239.97799682617188 -254.53599548339844,268.1860046386719 -249.51699829101562,294.4360046386719"></path></g><g opacity="1" transform="matrix(1,0,0,1,625.9739990234375,634.7650146484375)"><path fill="rgb(255,254,255)" fill-opacity="1" d=" M-41.867000579833984,113.46800231933594 C-41.867000579833984,113.46800231933594 213.09300231933594,-160.35800170898438 213.09300231933594,-160.35800170898438 C213.09300231933594,-160.35800170898438 151.75999450683594,-195.9239959716797 151.75999450683594,-195.9239959716797 C151.75999450683594,-195.9239959716797 -213.0919952392578,195.9239959716797 -213.0919952392578,195.9239959716797 C-157.60899353027344,169.13499450683594 -99.53800201416016,141.14700317382812 -41.867000579833984,113.46800231933594z"></path></g><g opacity="1" transform="matrix(1,0,0,1,137.6959991455078,203.25100708007812)"><path fill="rgb(255,254,255)" fill-opacity="1" d=" M-82.62799835205078,115.11799621582031 C-82.62799835205078,115.11799621582031 98.5739974975586,-79.50800323486328 98.5739974975586,-79.50800323486328 C98.5739974975586,-79.50800323486328 37.3390007019043,-115.11799621582031 37.3390007019043,-115.11799621582031 C37.3390007019043,-115.11799621582031 -98.5739974975586,30.81399917602539 -98.5739974975586,30.81399917602539 C-93.49600219726562,57.683998107910156 -88.12000274658203,85.90499877929688 -82.62799835205078,115.11399841308594"></path></g><g opacity="1" transform="matrix(1,0,0,1,232.67599487304688,350.72900390625)"><path fill="rgb(255,254,255)" fill-opacity="1" d=" M-138.2969970703125,174.96400451660156 C-138.2969970703125,174.96400451660156 154.31300354003906,-139.29299926757812 154.31300354003906,-139.29299926757812 C154.31300354003906,-139.29299926757812 93.06300354003906,-174.96400451660156 93.06300354003906,-174.96400451660156 C93.06300354003906,-174.96400451660156 -154.31300354003906,90.70099639892578 -154.31300354003906,90.70099639892578 C-149.03500366210938,118.5270004272461 -143.68899536132812,146.71800231933594 -138.2969970703125,174.96299743652344"></path></g><g opacity="1" transform="matrix(1,0,0,1,327.69000244140625,498.1960144042969)"><path fill="rgb(255,254,255)" fill-opacity="1" d=" M-194.00900268554688,234.7239990234375 C-194.00900268554688,234.7239990234375 210.00799560546875,-199.11199951171875 210.00799560546875,-199.11199951171875 C210.00799560546875,-199.11199951171875 148.74200439453125,-234.7239990234375 148.74200439453125,-234.7239990234375 C148.74200439453125,-234.7239990234375 -210.00799560546875,150.54600524902344 -210.00799560546875,150.54600524902344 C-204.58999633789062,178.9739990234375 -199.23300170898438,207.18499755859375 -194.00799560546875,234.7239990234375"></path></g><g opacity="1" transform="matrix(1,0,0,1,908.22900390625,578.2310180664062)"><path fill="rgb(255,254,255)" fill-opacity="1" d=" M76.12999725341797,-19.222000122070312 C76.12999725341797,-19.222000122070312 20.200000762939453,-51.73899841308594 20.200000762939453,-51.73899841308594 C20.200000762939453,-51.73899841308594 -76.12999725341797,51.73899841308594 -76.12999725341797,51.73899841308594 C-16.225000381469727,23.41699981689453 36.319000244140625,-1.121000051498413 76.12799835205078,-19.224000930786133"></path></g><g opacity="1" transform="matrix(1,0,0,1,42.82500076293945,55.71500015258789)"><path fill="rgb(255,254,255)" fill-opacity="1" d=" M-42.82500076293945,-29.05500030517578 C-38.803001403808594,-7.39300012588501 -33.35599899291992,21.2450008392334 -26.924999237060547,55.27299880981445 C-26.924999237060547,55.27299880981445 42.82500076293945,-19.635000228881836 42.82500076293945,-19.635000228881836 C42.82500076293945,-19.635000228881836 -18.44300079345703,-55.27299880981445 -18.44300079345703,-55.27299880981445 C-18.44300079345703,-55.27299880981445 -42.82500076293945,-29.05500030517578 -42.82500076293945,-29.05500030517578z"></path></g></g><g mask="url(#__lottie_element_458_1)" style="display: block;"><g class="png" transform="matrix(1.7760000228881836,0,0,1.7760000228881836,-994,-125)" opacity="1"><image width="1000px" height="1000px" preserveAspectRatio="xMidYMid slice" xlink:href="http://beta.grow.ae/eswp/download.png"></image></g></g><g style="display: none;" transform="matrix(1,0,0,1,443.5,-285)" opacity="0.005309433962302493"><g opacity="1" transform="matrix(1,0,0,1,163.406005859375,330.1860046386719)"><path fill="rgb(255,254,255)" fill-opacity="1" d=" M91.27200317382812,91.4530029296875 C91.27200317382812,91.4530029296875 -4.679999828338623,142.51600646972656 -4.679999828338623,142.51600646972656 C-4.679999828338623,142.51600646972656 -91.27200317382812,-6.283999919891357 -91.27200317382812,-6.283999919891357 C-91.27200317382812,-6.283999919891357 -44.78099822998047,-142.51600646972656 -44.78099822998047,-142.51600646972656 C-44.78099822998047,-142.51600646972656 91.27200317382812,91.4530029296875 91.27200317382812,91.4530029296875z"></path></g><g opacity="1" transform="matrix(1,0,0,1,273.9840087890625,197.01199340820312)"><path fill="rgb(255,254,255)" fill-opacity="1" d=" M-91.58899688720703,-196.39500427246094 C-91.58899688720703,-196.39500427246094 -129.74200439453125,-84.5510025024414 -129.74200439453125,-84.5510025024414 C-129.74200439453125,-84.5510025024414 33.74399948120117,196.39500427246094 33.74399948120117,196.39500427246094 C33.74399948120117,196.39500427246094 129.74200439453125,145.3090057373047 129.74200439453125,145.3090057373047 C129.74200439453125,145.3090057373047 -56.268001556396484,-174.3470001220703 -56.268001556396484,-174.3470001220703 C-56.268001556396484,-174.3470001220703 -91.58899688720703,-196.39500427246094 -91.58899688720703,-196.39500427246094z"></path></g><g opacity="1" transform="matrix(1,0,0,1,52.83700180053711,475.59100341796875)"><path fill="rgb(255,254,255)" fill-opacity="1" d=" M-52.83700180053711,59.78900146484375 C-52.83700180053711,59.78900146484375 -6.381999969482422,-76.41000366210938 -6.381999969482422,-76.41000366210938 C-6.381999969482422,-76.41000366210938 52.83700180053711,25.344999313354492 52.83700180053711,25.344999313354492 C52.83700180053711,25.344999313354492 -43.1349983215332,76.40899658203125 -43.1349983215332,76.40899658203125 C-43.1349983215332,76.40899658203125 -52.83700180053711,59.78900146484375 -52.83700180053711,59.78900146484375z"></path></g><g opacity="1" transform="matrix(1,0,0,1,439.7239990234375,202.38099670410156)"><path fill="rgb(255,254,255)" fill-opacity="1" d=" M17.016000747680664,111.71900177001953 C17.016000747680664,111.71900177001953 113.00499725341797,60.62699890136719 113.00499725341797,60.62699890136719 C113.00499725341797,60.62699890136719 84.31800079345703,11.376999855041504 84.31800079345703,11.376999855041504 C84.31800079345703,11.376999855041504 -113.00499725341797,-111.71900177001953 -113.00499725341797,-111.71900177001953 C-113.00499725341797,-111.71900177001953 17.016000747680664,111.71900177001953 17.016000747680664,111.71900177001953z"></path></g></g></g></svg>