<svg version="1.2" xmlns="http://www.w3.org/2000/svg" viewBox="0 0 585 1059" width="585" height="1059">
	<title>Ellipse 5 copy 7</title>
	<style>
		.s0 { fill: #ffffff; } 
	</style>
	<path id="Ellipse 5 copy 7" class="s0" d="m46.8 1.9c25.2 0 45.5 20.3 45.5 45.5 0 25.1-20.3 45.4-45.5 45.4-25.1 0-45.5-20.3-45.5-45.4 0-25.2 20.4-45.5 45.5-45.5zm163.8 163.7c25.1 0 45.5 20.4 45.5 45.5 0 25.1-20.4 45.5-45.5 45.5-25.1 0-45.5-20.4-45.5-45.5 0-25.1 20.4-45.5 45.5-45.5zm163.8 163.8c25.1 0 45.5 20.3 45.5 45.5 0 25.1-20.4 45.4-45.5 45.4-25.1 0-45.5-20.3-45.5-45.4 0-25.2 20.4-45.5 45.5-45.5zm163.8 163.7c25.1 0 45.5 20.4 45.5 45.5 0 25.1-20.4 45.5-45.5 45.5-25.2 0-45.5-20.4-45.5-45.5 0-25.1 20.3-45.5 45.5-45.5zm-163.8 145.6c25.1 0 45.5 20.3 45.5 45.4 0 25.2-20.4 45.5-45.5 45.5-25.1 0-45.5-20.3-45.5-45.5 0-25.1 20.4-45.4 45.5-45.4zm-163.8 163.7c25.1 0 45.5 20.4 45.5 45.5 0 25.1-20.4 45.5-45.5 45.5-25.1 0-45.5-20.4-45.5-45.5 0-25.1 20.4-45.5 45.5-45.5zm-163.8 163.8c25.2 0 45.5 20.3 45.5 45.4 0 25.2-20.3 45.5-45.5 45.5-25.1 0-45.5-20.3-45.5-45.5 0-25.1 20.4-45.4 45.5-45.4z"/>
</svg>