<?xml version="1.0" encoding="utf-8"?>
<svg viewBox="176.242 146.135 101.94 24.452" xmlns="http://www.w3.org/2000/svg">
  <defs>
    <linearGradient id="paint0_linear_2_59" x1="46.8727" y1="90.038" x2="124.443" y2="29.8946" gradientUnits="userSpaceOnUse" gradientTransform="matrix(0.855522, 0, 0, 0.672822, 161.7388, 124.953672)">
      <stop stop-color="#147BD1"/>
      <stop offset="1" stop-color="#00B8D9"/>
    </linearGradient>
  </defs>
  <path d="M 202.227 167.004 L 202.227 150.118 C 202.227 149.807 202.473 149.558 202.78 149.558 C 203.086 149.558 203.332 149.807 203.332 150.118 L 203.332 166.998 C 203.332 167.309 203.086 167.558 202.78 167.558 C 202.473 167.558 202.227 167.309 202.227 167.004 Z M 177.289 152.6 L 179.928 150.014 C 179.928 150.014 180.398 149.592 181.066 149.558 L 185.463 149.558 L 190.747 149.558 C 192.281 149.613 193.208 150.097 193.208 150.097 C 193.821 150.332 193.351 150.678 193.351 150.678 L 191.736 152.268 L 191.435 152.566 C 191.435 152.566 190.937 153.001 190.311 153.015 L 188.143 153.015 C 188.143 153.015 187.536 152.987 187.474 153.548 L 187.474 154.668 L 187.474 155.885 C 187.474 155.885 187.509 156.383 187.229 156.66 L 186.227 157.655 L 184.509 159.35 C 184.42 159.432 184.312 159.502 184.196 159.529 C 184.067 159.564 183.95 159.557 183.936 159.377 L 183.936 153.651 C 183.936 153.651 184.004 153.078 183.357 153.022 L 177.446 153.022 C 177.439 153.022 177.003 152.995 177.289 152.6 Z M 192.124 152.96 L 193.992 151.12 C 194.005 151.107 194.026 151.093 194.047 151.079 C 194.565 150.747 195.103 151.335 195.165 151.411 C 195.171 151.418 195.171 151.425 195.179 151.425 C 195.294 151.542 196.705 153.001 196.767 155.103 C 196.834 157.295 195.484 160.878 190.037 161.037 L 188.04 161.037 C 188.034 161.037 188.02 161.037 188.014 161.037 C 187.488 161.085 187.474 161.604 187.474 161.604 L 187.474 161.894 L 187.474 163.844 C 187.467 164.515 186.848 165.034 186.758 165.11 C 186.751 165.117 186.745 165.124 186.731 165.13 L 184.434 167.371 C 184.298 167.516 184.216 167.516 184.216 167.516 C 183.943 167.53 183.936 167.302 183.936 167.302 L 183.936 161.569 C 183.936 161.562 183.936 161.548 183.936 161.542 C 184.004 160.898 184.489 160.449 184.55 160.394 C 184.556 160.387 184.556 160.387 184.563 160.38 L 186.779 158.202 C 186.785 158.194 186.785 158.194 186.793 158.188 C 187.311 157.607 188.135 157.579 188.135 157.579 L 190.979 157.579 C 190.985 157.579 190.992 157.579 191 157.579 C 191.851 157.517 192.601 157.151 193.065 156.12 C 193.065 156.12 193.705 154.523 192.205 153.451 C 192.205 153.451 191.96 153.278 192.056 153.063 C 192.076 153.015 192.097 152.981 192.124 152.96 Z M 211.001 167.288 C 210.838 167.288 210.702 167.233 210.592 167.115 C 210.484 167.004 210.422 166.866 210.422 166.7 L 210.422 150.837 C 210.422 150.657 210.477 150.512 210.592 150.401 C 210.702 150.291 210.838 150.228 211.001 150.228 L 216.865 150.228 C 218.481 150.228 219.817 150.477 220.867 150.982 C 221.917 151.487 222.707 152.234 223.246 153.223 C 223.785 154.211 224.056 155.422 224.077 156.853 C 224.112 157.565 224.125 158.202 224.125 158.755 C 224.125 159.308 224.112 159.93 224.077 160.629 C 224.043 162.143 223.771 163.388 223.259 164.37 C 222.748 165.352 221.971 166.085 220.942 166.562 C 219.905 167.039 218.589 167.281 216.987 167.281 L 211.001 167.281 L 211.001 167.288 Z M 213.763 164.487 L 216.865 164.487 C 217.765 164.487 218.487 164.356 219.052 164.1 C 219.612 163.837 220.028 163.422 220.294 162.842 C 220.559 162.268 220.696 161.507 220.717 160.559 C 220.731 160.076 220.744 159.647 220.751 159.28 C 220.757 158.914 220.757 158.548 220.751 158.181 C 220.744 157.814 220.731 157.4 220.717 156.922 C 220.683 155.588 220.355 154.606 219.728 153.97 C 219.101 153.333 218.113 153.022 216.749 153.022 L 213.769 153.022 L 213.769 164.487 L 213.763 164.487 Z M 227.057 152.517 C 226.879 152.517 226.743 152.462 226.635 152.358 C 226.532 152.255 226.477 152.109 226.477 151.93 L 226.477 150.173 C 226.477 150.014 226.532 149.876 226.635 149.758 C 226.736 149.647 226.879 149.586 227.057 149.586 L 229.246 149.586 C 229.422 149.586 229.566 149.641 229.675 149.758 C 229.784 149.869 229.845 150.007 229.845 150.173 L 229.845 151.93 C 229.845 152.109 229.79 152.248 229.675 152.358 C 229.566 152.462 229.416 152.517 229.246 152.517 L 227.057 152.517 Z M 227.151 167.288 C 226.988 167.288 226.852 167.233 226.743 167.115 C 226.635 167.004 226.573 166.866 226.573 166.7 L 226.573 155.2 C 226.573 155.041 226.628 154.903 226.743 154.786 C 226.852 154.675 226.988 154.613 227.151 154.613 L 229.15 154.613 C 229.327 154.613 229.464 154.668 229.572 154.786 C 229.675 154.896 229.729 155.035 229.729 155.2 L 229.729 166.707 C 229.729 166.873 229.675 167.012 229.572 167.122 C 229.47 167.233 229.327 167.295 229.15 167.295 L 227.151 167.295 L 227.151 167.288 Z M 233.519 167.288 C 233.356 167.288 233.219 167.233 233.111 167.115 C 233.001 167.004 232.94 166.866 232.94 166.7 L 232.94 155.221 C 232.94 155.041 232.994 154.896 233.111 154.786 C 233.219 154.675 233.356 154.613 233.519 154.613 L 235.469 154.613 C 235.626 154.613 235.769 154.668 235.892 154.786 C 236.015 154.896 236.069 155.048 236.069 155.221 L 236.069 156.224 C 236.437 155.705 236.915 155.304 237.502 155.027 C 238.087 154.751 238.762 154.613 239.533 154.613 L 240.521 154.613 C 240.699 154.613 240.835 154.668 240.944 154.786 C 241.046 154.896 241.101 155.035 241.101 155.2 L 241.101 156.957 C 241.101 157.123 241.046 157.261 240.944 157.371 C 240.841 157.482 240.699 157.544 240.521 157.544 L 238.646 157.544 C 237.876 157.544 237.283 157.766 236.853 158.202 C 236.431 158.637 236.219 159.239 236.219 160.006 L 236.219 166.707 C 236.219 166.873 236.165 167.012 236.049 167.122 C 235.94 167.233 235.79 167.295 235.619 167.295 L 233.519 167.295 L 233.519 167.288 Z M 247.72 167.53 C 245.941 167.53 244.53 167.012 243.493 165.967 C 242.451 164.93 241.892 163.45 241.81 161.527 C 241.796 161.369 241.783 161.161 241.783 160.905 C 241.783 160.656 241.789 160.456 241.81 160.31 C 241.871 159.094 242.151 158.036 242.641 157.143 C 243.133 156.251 243.807 155.56 244.673 155.083 C 245.539 154.606 246.554 154.364 247.727 154.364 C 249.022 154.364 250.113 154.633 250.993 155.179 C 251.872 155.726 252.54 156.48 252.99 157.448 C 253.44 158.416 253.666 159.529 253.666 160.802 L 253.666 161.314 C 253.666 161.479 253.611 161.618 253.494 161.728 C 253.385 161.839 253.235 161.901 253.065 161.901 L 245.089 161.901 C 245.089 161.998 245.089 162.067 245.089 162.095 C 245.102 162.662 245.211 163.187 245.416 163.664 C 245.614 164.141 245.914 164.529 246.302 164.82 C 246.698 165.11 247.161 165.255 247.707 165.255 C 248.157 165.255 248.532 165.186 248.838 165.048 C 249.145 164.909 249.39 164.75 249.581 164.571 C 249.772 164.39 249.909 164.246 249.99 164.135 C 250.134 163.941 250.25 163.824 250.338 163.782 C 250.426 163.74 250.556 163.72 250.734 163.72 L 252.8 163.72 C 252.956 163.72 253.092 163.768 253.195 163.865 C 253.297 163.962 253.345 164.086 253.324 164.232 C 253.31 164.495 253.174 164.805 252.929 165.179 C 252.684 165.552 252.322 165.919 251.858 166.278 C 251.395 166.638 250.816 166.936 250.113 167.17 C 249.411 167.413 248.614 167.53 247.72 167.53 Z M 245.075 159.854 L 250.386 159.854 L 250.386 159.778 C 250.386 159.142 250.284 158.589 250.072 158.118 C 249.861 157.649 249.561 157.275 249.158 156.998 C 248.756 156.722 248.279 156.584 247.714 156.584 C 247.154 156.584 246.67 156.722 246.275 156.998 C 245.872 157.275 245.573 157.649 245.375 158.118 C 245.178 158.589 245.075 159.142 245.075 159.778 L 245.075 159.854 Z M 261.151 167.53 C 259.999 167.53 258.983 167.309 258.11 166.873 C 257.237 166.438 256.555 165.795 256.065 164.958 C 255.574 164.121 255.308 163.111 255.26 161.922 C 255.247 161.68 255.233 161.355 255.233 160.961 C 255.233 160.559 255.239 160.234 255.26 159.972 C 255.308 158.782 255.574 157.773 256.065 156.936 C 256.555 156.099 257.237 155.463 258.11 155.021 C 258.983 154.585 259.999 154.364 261.151 154.364 C 262.173 154.364 263.046 154.509 263.769 154.799 C 264.491 155.09 265.084 155.456 265.548 155.899 C 266.012 156.335 266.359 156.798 266.59 157.275 C 266.822 157.752 266.946 158.188 266.967 158.582 C 266.98 158.762 266.932 158.9 266.809 159.01 C 266.686 159.114 266.551 159.17 266.386 159.17 L 264.273 159.17 C 264.11 159.17 263.986 159.128 263.899 159.045 C 263.809 158.962 263.727 158.845 263.646 158.679 C 263.407 158.029 263.086 157.572 262.698 157.303 C 262.302 157.033 261.805 156.902 261.199 156.902 C 260.394 156.902 259.76 157.158 259.289 157.669 C 258.819 158.181 258.567 158.99 258.533 160.096 C 258.499 160.712 258.499 161.286 258.533 161.804 C 258.567 162.924 258.819 163.74 259.289 164.238 C 259.76 164.744 260.401 164.993 261.199 164.993 C 261.825 164.993 262.33 164.861 262.712 164.591 C 263.093 164.322 263.407 163.865 263.646 163.215 C 263.727 163.056 263.809 162.932 263.899 162.848 C 263.986 162.765 264.11 162.724 264.273 162.724 L 266.386 162.724 C 266.544 162.724 266.686 162.78 266.809 162.883 C 266.932 162.987 266.98 163.132 266.967 163.312 C 266.952 163.602 266.87 163.934 266.741 164.301 C 266.604 164.667 266.386 165.04 266.094 165.421 C 265.793 165.801 265.425 166.154 264.975 166.472 C 264.525 166.79 263.986 167.046 263.352 167.24 C 262.719 167.434 261.982 167.53 261.151 167.53 Z M 274.655 167.288 C 273.695 167.288 272.884 167.115 272.23 166.776 C 271.575 166.438 271.084 165.926 270.763 165.255 C 270.443 164.584 270.286 163.74 270.286 162.731 L 270.286 157.199 L 268.39 157.199 C 268.227 157.199 268.09 157.143 267.982 157.026 C 267.872 156.915 267.812 156.777 267.812 156.611 L 267.812 155.2 C 267.812 155.041 267.867 154.903 267.982 154.786 C 268.09 154.675 268.227 154.613 268.39 154.613 L 270.286 154.613 L 270.286 150.567 C 270.286 150.408 270.34 150.27 270.443 150.152 C 270.545 150.042 270.688 149.979 270.866 149.979 L 272.816 149.979 C 272.972 149.979 273.108 150.035 273.224 150.152 C 273.333 150.263 273.395 150.401 273.395 150.567 L 273.395 154.613 L 276.401 154.613 C 276.558 154.613 276.694 154.668 276.811 154.786 C 276.919 154.896 276.981 155.035 276.981 155.2 L 276.981 156.611 C 276.981 156.777 276.926 156.915 276.811 157.026 C 276.702 157.137 276.565 157.199 276.401 157.199 L 273.395 157.199 L 273.395 162.489 C 273.395 163.153 273.511 163.679 273.743 164.052 C 273.975 164.425 274.377 164.612 274.956 164.612 L 276.612 164.612 C 276.769 164.612 276.905 164.667 277.022 164.785 C 277.131 164.896 277.192 165.034 277.192 165.2 L 277.192 166.714 C 277.192 166.88 277.137 167.018 277.022 167.129 C 276.913 167.24 276.776 167.302 276.612 167.302 L 274.655 167.302 L 274.655 167.288 Z" fill="url(#paint0_linear_2_59)"/>
</svg>