<svg width="153" height="111" viewBox="0 0 153 111" fill="none" xmlns="http://www.w3.org/2000/svg">
<path d="M47.3264 62.4992V37.4009C47.3264 36.9384 47.6132 36.5684 47.9718 36.5684C48.3304 36.5684 48.6173 36.9384 48.6173 37.4009V62.4889C48.6173 62.9514 48.3304 63.3214 47.9718 63.3214C47.6132 63.3214 47.3264 62.9514 47.3264 62.4992ZM18.1767 41.0906L21.2606 37.2467C21.2606 37.2467 21.8104 36.6197 22.5914 36.5684H27.7312H33.907C35.7 36.6506 36.7837 37.37 36.7837 37.37C37.5009 37.7195 36.9511 38.2334 36.9511 38.2334L35.0625 40.5972L34.7118 41.0392C34.7118 41.0392 34.1301 41.6867 33.397 41.7072H30.8629C30.8629 41.7072 30.1537 41.6661 30.082 42.4986V44.1636V45.9725C30.082 45.9725 30.1218 46.7125 29.7951 47.1236L28.6237 48.6036L26.6156 51.1217C26.512 51.245 26.3845 51.3478 26.249 51.3889C26.0976 51.4403 25.9622 51.43 25.9462 51.1628V42.6528C25.9462 42.6528 26.0259 41.7997 25.2689 41.7175H18.36C18.352 41.7175 17.842 41.6764 18.1767 41.0906ZM35.5167 41.625L37.7001 38.8911C37.7161 38.8706 37.74 38.85 37.7639 38.8295C38.3695 38.3361 38.999 39.2097 39.0707 39.3228C39.0787 39.3331 39.0787 39.3434 39.0867 39.3434C39.2222 39.5181 40.8717 41.6867 40.9434 44.8111C41.0231 48.0692 39.4453 53.3931 33.0782 53.6295H30.7434C30.7354 53.6295 30.7195 53.6295 30.7115 53.6295C30.0979 53.7014 30.082 54.4722 30.082 54.4722V54.9039V57.8023C30.074 58.7992 29.3489 59.57 29.2453 59.6831C29.2373 59.6934 29.2293 59.7036 29.2134 59.7139L26.5279 63.0439C26.3686 63.2598 26.2729 63.2597 26.2729 63.2597C25.9542 63.2803 25.9462 62.9411 25.9462 62.9411V54.4209C25.9462 54.4106 25.9462 54.39 25.9462 54.3797C26.0259 53.4239 26.5917 52.7559 26.6634 52.6736C26.6714 52.6634 26.6714 52.6634 26.6793 52.6531L29.2692 49.4156C29.2772 49.4053 29.2772 49.4053 29.2851 49.395C29.8907 48.5317 30.855 48.4906 30.855 48.4906H34.1779C34.1859 48.4906 34.1939 48.4906 34.2018 48.4906C35.1979 48.3981 36.0745 47.8534 36.6164 46.322C36.6164 46.322 37.3654 43.9478 35.6123 42.3547C35.6123 42.3547 35.3254 42.0978 35.437 41.7792C35.4609 41.7072 35.4848 41.6559 35.5167 41.625ZM57.5822 62.9206C57.3909 62.9206 57.2315 62.8384 57.104 62.6636C56.9765 62.4992 56.9048 62.2936 56.9048 62.047V38.4697C56.9048 38.2025 56.9686 37.9867 57.104 37.8222C57.2315 37.6578 57.3909 37.5653 57.5822 37.5653H64.4353C66.3239 37.5653 67.8858 37.9353 69.1129 38.6856C70.3401 39.4359 71.2645 40.5459 71.894 42.0156C72.5236 43.4853 72.8423 45.2839 72.8662 47.4114C72.9061 48.47 72.922 49.4156 72.922 50.2378C72.922 51.06 72.9061 51.985 72.8662 53.0231C72.8264 55.2739 72.5076 57.1239 71.91 58.5834C71.3123 60.0428 70.4039 61.1322 69.2006 61.8414C67.9893 62.5506 66.4514 62.9103 64.5787 62.9103H57.5822V62.9206ZM60.8095 58.7581H64.4353C65.4872 58.7581 66.3318 58.5628 66.9933 58.1825C67.6467 57.792 68.1328 57.1753 68.4436 56.312C68.7543 55.4589 68.9137 54.3284 68.9376 52.9203C68.9536 52.2009 68.9695 51.5636 68.9775 51.0189C68.9854 50.4742 68.9854 49.9295 68.9775 49.3847C68.9695 48.84 68.9536 48.2234 68.9376 47.5142C68.8978 45.5306 68.5153 44.0711 67.7822 43.1256C67.049 42.18 65.8936 41.7175 64.2998 41.7175H60.8175V58.7581H60.8095ZM76.3486 40.9672C76.1414 40.9672 75.982 40.885 75.8545 40.7309C75.735 40.5767 75.6712 40.3609 75.6712 40.0936V37.4831C75.6712 37.2467 75.735 37.0411 75.8545 36.8664C75.974 36.702 76.1414 36.6095 76.3486 36.6095H78.9065C79.1137 36.6095 79.2811 36.6917 79.4086 36.8664C79.5361 37.0309 79.6078 37.2364 79.6078 37.4831V40.0936C79.6078 40.3609 79.544 40.5664 79.4086 40.7309C79.2811 40.885 79.1058 40.9672 78.9065 40.9672H76.3486ZM76.4601 62.9206C76.2689 62.9206 76.1095 62.8384 75.982 62.6636C75.8545 62.4992 75.7828 62.2936 75.7828 62.047V44.955C75.7828 44.7186 75.8465 44.5131 75.982 44.3384C76.1095 44.1739 76.2689 44.0814 76.4601 44.0814H78.795C79.0022 44.0814 79.1615 44.1636 79.289 44.3384C79.4086 44.5028 79.4723 44.7084 79.4723 44.955V62.0572C79.4723 62.3039 79.4086 62.5095 79.289 62.6739C79.1695 62.8384 79.0022 62.9309 78.795 62.9309H76.4601V62.9206ZM83.9029 62.9206C83.7117 62.9206 83.5523 62.8384 83.4248 62.6636C83.2973 62.4992 83.2256 62.2936 83.2256 62.047V44.9859C83.2256 44.7186 83.2893 44.5028 83.4248 44.3384C83.5523 44.1739 83.7117 44.0814 83.9029 44.0814H86.182C86.3653 44.0814 86.5326 44.1636 86.6761 44.3384C86.8195 44.5028 86.8833 44.7289 86.8833 44.9859V46.4761C87.3136 45.7053 87.8714 45.1092 88.5567 44.6981C89.242 44.287 90.0309 44.0814 90.9314 44.0814H92.0868C92.294 44.0814 92.4534 44.1636 92.5809 44.3384C92.7004 44.5028 92.7642 44.7084 92.7642 44.955V47.5656C92.7642 47.8122 92.7004 48.0178 92.5809 48.1822C92.4614 48.3467 92.294 48.4392 92.0868 48.4392H89.8954C88.995 48.4392 88.3017 48.7681 87.7997 49.4156C87.3056 50.0631 87.0586 50.9573 87.0586 52.0981V62.0572C87.0586 62.3039 86.9948 62.5095 86.8593 62.6739C86.7318 62.8384 86.5565 62.9309 86.3573 62.9309H83.9029V62.9206ZM100.502 63.2803C98.422 63.2803 96.7725 62.5095 95.5612 60.9575C94.342 59.4159 93.6886 57.2164 93.5929 54.3592C93.577 54.1228 93.5611 53.8145 93.5611 53.4342C93.5611 53.0642 93.569 52.7661 93.5929 52.5503C93.6647 50.7414 93.9914 49.1689 94.5651 47.8431C95.1389 46.5172 95.9278 45.4895 96.9398 44.7803C97.9518 44.0711 99.1392 43.7114 100.51 43.7114C102.024 43.7114 103.299 44.1122 104.327 44.9242C105.355 45.7361 106.136 46.8564 106.662 48.2953C107.188 49.7342 107.451 51.3889 107.451 53.28V54.0406C107.451 54.2872 107.387 54.4928 107.251 54.6572C107.124 54.8217 106.949 54.9142 106.749 54.9142H97.4259C97.4259 55.0581 97.4259 55.1609 97.4259 55.202C97.4418 56.0447 97.5693 56.8259 97.8084 57.535C98.0395 58.2442 98.3901 58.8197 98.8443 59.2514C99.3065 59.6831 99.8484 59.8989 100.486 59.8989C101.012 59.8989 101.45 59.7961 101.809 59.5906C102.167 59.385 102.454 59.1486 102.677 58.8814C102.9 58.6142 103.06 58.3984 103.155 58.2339C103.323 57.9461 103.458 57.7714 103.562 57.7097C103.665 57.6481 103.817 57.6172 104.024 57.6172H106.439C106.622 57.6172 106.781 57.6892 106.901 57.8331C107.02 57.977 107.076 58.162 107.052 58.3778C107.036 58.7684 106.877 59.2309 106.59 59.7859C106.303 60.3409 105.881 60.8856 105.339 61.42C104.797 61.9545 104.12 62.3964 103.299 62.7459C102.478 63.1056 101.546 63.2803 100.502 63.2803ZM97.41 51.872H103.618V51.7589C103.618 50.8134 103.498 49.9911 103.251 49.2922C103.004 48.5934 102.653 48.0384 102.183 47.6273C101.713 47.2161 101.155 47.0106 100.494 47.0106C99.8404 47.0106 99.2747 47.2161 98.8125 47.6273C98.3423 48.0384 97.9917 48.5934 97.7606 49.2922C97.5295 49.9911 97.41 50.8134 97.41 51.7589V51.872ZM116.2 63.2803C114.854 63.2803 113.666 62.9514 112.646 62.3039C111.626 61.6564 110.829 60.7006 110.256 59.457C109.682 58.2134 109.371 56.7128 109.315 54.945C109.299 54.5853 109.283 54.1022 109.283 53.5164C109.283 52.9203 109.291 52.4373 109.315 52.0467C109.371 50.2789 109.682 48.7784 110.256 47.5347C110.829 46.2911 111.626 45.3456 112.646 44.6878C113.666 44.0403 114.854 43.7114 116.2 43.7114C117.396 43.7114 118.416 43.9272 119.26 44.3589C120.105 44.7906 120.798 45.3353 121.34 45.9931C121.882 46.6406 122.288 47.3292 122.559 48.0384C122.83 48.7475 122.974 49.395 122.998 49.9809C123.014 50.2481 122.958 50.4536 122.814 50.6181C122.671 50.7722 122.512 50.8545 122.32 50.8545H119.85C119.659 50.8545 119.515 50.7928 119.412 50.6695C119.308 50.5461 119.212 50.3714 119.117 50.1247C118.838 49.1586 118.463 48.4803 118.009 48.0795C117.547 47.6786 116.965 47.4834 116.256 47.4834C115.316 47.4834 114.575 47.8636 114.025 48.6242C113.475 49.3847 113.18 50.5872 113.14 52.2317C113.1 53.1464 113.1 53.9995 113.14 54.7703C113.18 56.4353 113.475 57.6481 114.025 58.3881C114.575 59.1384 115.324 59.5084 116.256 59.5084C116.989 59.5084 117.579 59.3131 118.025 58.9122C118.471 58.5114 118.838 57.8331 119.117 56.867C119.212 56.6306 119.308 56.4456 119.412 56.3222C119.515 56.1989 119.659 56.1372 119.85 56.1372H122.32C122.504 56.1372 122.671 56.2195 122.814 56.3736C122.958 56.5278 123.014 56.7436 122.998 57.0109C122.982 57.4425 122.886 57.9359 122.735 58.4806C122.575 59.0253 122.32 59.5803 121.978 60.1456C121.627 60.7109 121.197 61.235 120.671 61.7078C120.145 62.1806 119.515 62.5609 118.774 62.8486C118.033 63.1364 117.172 63.2803 116.2 63.2803ZM131.986 62.9206C130.863 62.9206 129.915 62.6636 129.15 62.16C128.385 61.6564 127.811 60.8959 127.436 59.8989C127.062 58.902 126.878 57.6481 126.878 56.1475V47.9253H124.663C124.472 47.9253 124.312 47.8431 124.185 47.6684C124.057 47.5039 123.986 47.2984 123.986 47.0517V44.955C123.986 44.7186 124.05 44.5131 124.185 44.3384C124.312 44.1739 124.472 44.0814 124.663 44.0814H126.878V38.0689C126.878 37.8325 126.942 37.627 127.062 37.4522C127.181 37.2878 127.349 37.1953 127.556 37.1953H129.835C130.018 37.1953 130.177 37.2775 130.313 37.4522C130.44 37.6167 130.512 37.8222 130.512 38.0689V44.0814H134.026C134.21 44.0814 134.369 44.1636 134.505 44.3384C134.632 44.5028 134.704 44.7084 134.704 44.955V47.0517C134.704 47.2984 134.64 47.5039 134.505 47.6684C134.377 47.8328 134.218 47.9253 134.026 47.9253H130.512V55.7878C130.512 56.7745 130.648 57.5556 130.919 58.1106C131.19 58.6656 131.66 58.9431 132.337 58.9431H134.273C134.457 58.9431 134.616 59.0253 134.752 59.2C134.879 59.3645 134.951 59.57 134.951 59.8167V62.0675C134.951 62.3142 134.887 62.5198 134.752 62.6842C134.624 62.8486 134.465 62.9411 134.273 62.9411H131.986V62.9206Z" fill="url(#paint0_linear_2_59)"/>
<defs>
<linearGradient id="paint0_linear_2_59" x1="46.8727" y1="90.038" x2="124.443" y2="29.8946" gradientUnits="userSpaceOnUse">
<stop stop-color="#147BD1"/>
<stop offset="1" stop-color="#00B8D9"/>
</linearGradient>
</defs>
</svg>
