<svg id="layer" xmlns="http://www.w3.org/2000/svg" viewBox="0 0 600 152.6"><defs><style>.cls-1{fill:#474c55;}.cls-2{fill:#878a8f;}.cls-3{fill:#fff;}.cls-4{fill:#0079c2;}.cls-5{fill:#0d79bf;}</style></defs><path class="cls-1" d="M201.6,96.6l10-5.3c4.5,8.8,11.4,13.1,20.7,13.1,9.1,0,15.3-2.9,15.3-9.8,0-6.5-4.7-9.5-17-13.2-14.5-4.3-26.2-8.2-26.2-22.5,0-12.8,10.4-21.2,25.7-21.2,14.8,0,23.5,7.3,28.1,16.2L249,60.3c-4.5-7.5-10.8-11-19-11s-13.1,3-13.1,8.5c0,7,5.4,9.3,17.6,13,14.2,4.2,25.5,8.8,25.5,23,0,12.3-10.4,21.9-28.3,21.9-14.8,0-25.4-7.7-30.1-19.1"/><path class="cls-1" d="M265.8,101.3c0-11.7,9.9-19.5,35.1-22.3V77.4c0-5.4-2.8-7.7-8.8-7.7-7.5,0-13.6,3.7-18.1,7.3l-6.1-7.8a38.52,38.52,0,0,1,26-9.8c14.4,0,19.4,6.9,19.4,19.5v22.2c0,6.5.4,10.5,1.5,13.2H302.2a19.83,19.83,0,0,1-1.2-6.9c-5.5,5.6-11.9,7.7-19.9,7.7-8.8,0-15.3-4.9-15.3-13.8m35.1-2.1V87.3c-14.9,2-22.8,5.7-22.8,11.6,0,4.3,2.9,6.5,7.5,6.5a21.17,21.17,0,0,0,15.3-6.2"/><path class="cls-1" d="M330.5,114.3v-44h-9.3v-10h9.3V54.8c0-9,3.8-16,17.4-16,2.3,0,6.5.4,7.4.5V49a23.27,23.27,0,0,0-4.3-.4c-4.5,0-8.1,1.2-8.1,7v4.8h11.8v10H342.9v44H330.5Z"/><path class="cls-1" d="M359.2,87.3c0-20.5,14.5-28,25.6-28,12.1,0,23.6,7.2,23.6,29.2v2.9H371.6c.5,9.8,6.5,14,14.4,14,7,0,11.1-2.3,15.1-6.3l6.6,6.5c-5.6,6.2-13,9.8-22.6,9.8-13.4,0-25.9-8.2-25.9-28.1M397,82.1c-.7-8.2-4.8-12.6-12.3-12.6-6.1,0-11.7,3.5-12.9,12.6Z"/><polygon class="cls-2" points="419.6 114.3 419.6 39.1 428.6 39.1 428.6 77.9 462.5 39.1 473.3 39.1 447.5 67.7 476.8 114.3 466.6 114.3 441.6 74.5 428.6 88.9 428.6 114.3 419.6 114.3"/><path class="cls-2" d="M479.4,87.4c0-19.5,13-27.9,24.2-27.9,12.7,0,22.3,8.9,22.3,28.3v1.8H488.1c.3,12.1,7.3,18.6,16.1,18.6,7.7,0,12.1-3.1,16.1-8.7l5.1,4.5c-5,7.1-11.8,11.4-21.8,11.4-12.7,0-24.2-9.3-24.2-28m38.2-4.5c-.7-9.5-5.3-16-14.1-16-7.2,0-14,5-15.2,16Z"/><path class="cls-2" d="M529.9,133.6l2-7a31.4,31.4,0,0,0,7.9.9c5.5,0,8.1-2.3,10.2-7.6l2-5.3L531.3,60.7h9.2l15.7,43.4h.2l15.7-43.4h8.8L558,120.4c-3.7,9.4-7.8,14.5-18.2,14.5a32.24,32.24,0,0,1-9.9-1.3"/><path class="cls-2" d="M584,68.3a7.94,7.94,0,0,1,8.1-8.1,7.81,7.81,0,0,1,7.9,8,7.94,7.94,0,0,1-8.1,8.1,7.81,7.81,0,0,1-7.9-8m14.3,0a6.37,6.37,0,0,0-6.4-6.6,6.5,6.5,0,0,0,.1,13,6.18,6.18,0,0,0,6.3-6.4m-9.5-4.6h3.4c2.1,0,3.4.9,3.4,2.9a2.38,2.38,0,0,1-1.6,2.5l1.7,3.3h-2.2l-1.6-3.1h-1v3.1h-2.1V63.7Zm3.2,4.1c.9,0,1.5-.3,1.5-1.1s-.5-1.1-1.5-1.1h-1.1v2.2Z"/><polygon class="cls-3" points="152.4 152.6 76.2 152.6 0 152.6 0 76.4 0 0.2 76.2 0.2 152.4 0.2 152.4 75.9 152.4 152.6"/><path class="cls-4" d="M96.9,108.4l-3.7-4.6v4.6H82.3v-6.6a17.33,17.33,0,0,1-4.8.7H75.8v5.8h-16l-2.7-3.8-2.6,3.8H28.2v-26H54.5l2.7,3.8,2.7-3.8h92.5V0H0V60.2L5.1,48.3H15.5l3,6.7V48.3H31.2L33.1,54,35,48.3H91v2.6a12.22,12.22,0,0,1,8-2.6h17l3,6.7V48.3h10l3.3,5.3V48.3h11.4v26H133.1l-3.2-5.1v5.1H114.4l-1.5-3.9h-3.6l-1.5,3.9H98.7A11.91,11.91,0,0,1,91,71.9v2.4H75.7L72,69.7v4.6H13.7l-1.5-3.9H8.6L7.1,74.3H-.1v78.1H152.4V106.8a10.93,10.93,0,0,1-5.8,1.6Z"/><path class="cls-5" d="M152.4,86.5v-.1h-9.2c-3.9,0-6.2,2.4-6.2,5.6,0,3.4,2.2,5.3,5.6,5.3h4.1a1.63,1.63,0,0,1,1.8,1.6,1.58,1.58,0,0,1-1.8,1.6h-9.2v3.8h9.1c3,0,5-1.4,5.8-3.6a6.54,6.54,0,0,0,.4-2.1,5.09,5.09,0,0,0-.4-2.2c-.8-1.9-2.6-3-5.2-3H143a1.61,1.61,0,0,1-1.7-1.6,1.55,1.55,0,0,1,1.7-1.6h7.7Zm-27.6,5.4a1.55,1.55,0,0,1,1.7-1.6h7.7l1.7-3.8h-9.3c-3.9,0-6.2,2.4-6.2,5.6,0,3.4,2.2,5.3,5.6,5.3h4.1a1.63,1.63,0,0,1,1.8,1.6,1.58,1.58,0,0,1-1.8,1.6h-9.2v3.8H130c3.9,0,6.2-2.4,6.2-5.7s-2.1-5.2-5.6-5.2h-4.2a1.52,1.52,0,0,1-1.6-1.6m-20.6,12.5h14.4v-3.8H108.5V97.3h9.8V93.6h-9.8V90.4h10.1V86.6H104.2Zm-1,0-6-6.6a5.7,5.7,0,0,0,4.9-5.7c0-3.4-2.4-5.7-6.2-5.7H86.1v18h4.3V98h2l5.3,6.4ZM95.5,94.2h-5v-4h5a2,2,0,1,1,0,4M83.8,92.4c0-3.6-2.4-6-6.2-6H67.7v18H72V98.5h5.4c4,0,6.4-2.6,6.4-6.1m-4.4.1a2.13,2.13,0,0,1-2.3,2.2H71.9V90.3h5.2a2,2,0,0,1,2.3,2.2M66.9,104.4l-7.2-9.1,7.2-8.9H61.6l-4.4,5.7-4.4-5.7H47.4l7.2,9-7.2,9h5.3l4.4-5.8,4.4,5.8Zm-34.6,0H46.7v-3.8H36.6V97.3h9.8V93.6H36.6V90.4H46.7V86.6H32.3Z"/><path class="cls-5" d="M139.6,70.5v-18h-4.2V62l.1,2.2h-.1l-1.2-2-6.3-9.7h-5.3v18h4.2v-10l-.1-2.1h.1l1.2,2,6.6,10.1Zm-22.8,0h4.9l-7.7-18h-5.7l-7.7,18h4.6l1.5-3.8h8.5Zm-3-7.3h-5.7l1.7-4.2,1.1-2.8h.1l1.1,2.8Zm-15-6.8h4.7V52.5h-5c-5.6,0-8.6,3.7-8.6,8.8v.3c0,5.4,3.1,8.8,8.3,8.8h.3l1.8-3.8H99c-2.9,0-4.7-1.8-4.7-5v-.3c-.1-2.8,1.4-4.9,4.5-4.9M83,70.5h4.3v-18H83v18Zm-1.1,0-6-6.6a5.7,5.7,0,0,0,4.9-5.7c0-3.4-2.4-5.7-6.2-5.7H64.8v18h4.3V64.1h2l5.3,6.4ZM74.2,60.3h-5v-4h5a2,2,0,0,1,2.3,2,2.09,2.09,0,0,1-2.3,2M47.5,70.5H61.9V66.7h-10V63.4h9.8V59.7H51.9V56.5h10V52.7H47.5Zm-7.5,0h4.2v-18h-7L33.7,62.9l-.6,2H33l-.6-2L28.9,52.5h-7v18h4.2V58.7L26,56h.1l.9,2.7,4.1,11.8H35l4.1-11.8L40,56h.1L40,58.7Zm-23.8,0h4.9l-7.7-18H7.7L0,70.5H4.6l1.5-3.8h8.5Zm-2.9-7.3H7.6L9.3,59l1.1-2.8h.1L11.6,59Z"/></svg>