<svg id="Layer_3" data-name="Layer 3" xmlns="http://www.w3.org/2000/svg" viewBox="0 0 108 68"><defs><style>.cls-1{fill:#016fd0;}.cls-2{fill:#fff;}</style></defs><g id="layer1"><path id="path3078" class="cls-1" d="M30,11H76.92V36.33L74.6,40l2.32,3.23V57.92H30V34l1.45-1.67L30,30.78Z"/><path id="path3082" class="cls-2" d="M39.12,43.67V36.34h7.8l.83,1.09.87-1.09h28.3v6.87a3.29,3.29,0,0,1-1.6.51H59.62l-.94-1.18v1.18H55.57v-2a2.57,2.57,0,0,1-1.34.28h-1v1.69H48.55l-.84-1.1-.85,1.1Z"/><path id="path3080" class="cls-2" d="M30,30.76l1.76-4.11h3l1,2.3v-2.3h3.78l.59,1.66.58-1.66h17v.84a3.64,3.64,0,0,1,2.36-.84l5.5,0,1,2.27V26.65H69.7L70.57,28V26.65h3.2V34H70.56l-.84-1.31V34H65.08l-.47-1.18H63.36L62.9,34H59.76a3.11,3.11,0,0,1-2.07-.83V34H52.94L52,32.86V34H34.35l-.46-1.18H32.64L32.18,34H30Z"/><path id="path3046" class="cls-1" d="M32.38,27.6,30,33.1h1.58L32,32h2.5l.42,1.09h1.61l-2.37-5.5Zm.88,1.26L34,30.79H32.48Z"/><path id="path3048" class="cls-1" d="M36.72,33.1V27.6h2.22l1.26,3.55,1.23-3.55h2.16v5.5H42.22V29L40.78,33.1H39.54L38.09,29V33.1Z"/><path id="path3050" class="cls-1" d="M44.53,33.1V27.6H49v1.22h-3.1v.94h3v1.17h-3v1H49V33.1Z"/><path id="path3052" class="cls-1" d="M49.84,27.6v5.5H51.2v-2h.58l1.63,2h1.71l-1.81-2a1.67,1.67,0,0,0,1.51-1.69A1.77,1.77,0,0,0,52.9,27.6Zm1.36,1.22h1.6a.64.64,0,0,1,.66.59.62.62,0,0,1-.64.58H51.2V28.82Z"/><path id="path3054" class="cls-1" d="M56.8,33.1H55.39V27.6H56.8Z"/><path id="path3056" class="cls-1" d="M60.13,33.1h-.29c-1.47,0-2.36-1.16-2.36-2.73a2.52,2.52,0,0,1,2.73-2.77h1.52v1.26H60.15a1.33,1.33,0,0,0-1.29,1.49,1.35,1.35,0,0,0,1.49,1.52h.37Z"/><path id="path3058" class="cls-1" d="M63.14,27.6l-2.37,5.5h1.57L62.77,32h2.49l.43,1.09h1.6l-2.36-5.5ZM64,28.86l.78,1.93H63.24L64,28.86Z"/><path id="path3060" class="cls-1" d="M67.47,33.1V27.6h1.78l2.21,3.45V27.6h1.37v5.5H71.1l-2.27-3.55V33.1Z"/><path id="path3062" class="cls-1" d="M40,42.73v-5.5h4.52v1.22H41.47v.95h3v1.17h-3v1h3.06v1.17Z"/><path id="path3064" class="cls-1" d="M62.06,42.73v-5.5h4.52v1.22H63.47v.95h3v1.17h-3v1h3.11v1.17Z"/><path id="path3066" class="cls-1" d="M44.72,42.73,46.91,40l-2.24-2.79H46.4L47.74,39l1.33-1.72h1.67L48.53,40l2.19,2.75H49L47.69,41l-1.26,1.69Z"/><path id="path3068" class="cls-1" d="M50.87,37.23v5.5h1.41V41h1.45a1.9,1.9,0,0,0,2.15-1.91,1.81,1.81,0,0,0-2-1.85Zm1.41,1.27h1.53a.62.62,0,0,1,.68.64.63.63,0,0,1-.68.63H52.28V38.5Z"/><path id="path3072" class="cls-1" d="M56.51,37.23v5.5h1.37v-2h.57l1.64,2H61.8l-1.81-2A1.68,1.68,0,0,0,61.5,39a1.79,1.79,0,0,0-1.93-1.79Zm1.37,1.22h1.59a.59.59,0,1,1,0,1.18H57.88Z"/><path id="path3074" class="cls-1" d="M67.23,42.73V41.56H70c.41,0,.59-.23.59-.47s-.18-.47-.59-.47h-1.3A1.54,1.54,0,0,1,67,39c0-.89.55-1.74,2.16-1.74h2.68l-.57,1.22H69c-.45,0-.59.24-.59.46a.49.49,0,0,0,.51.49h1.33A1.51,1.51,0,0,1,72,41a1.65,1.65,0,0,1-1.8,1.75Z"/><path id="path3076" class="cls-1" d="M72.26,42.73V41.56h2.8c.41,0,.59-.23.59-.47s-.18-.47-.59-.47H73.79A1.54,1.54,0,0,1,72.1,39c0-.89.55-1.74,2.16-1.74h2.68l-.57,1.22H74.05c-.45,0-.59.24-.59.46a.49.49,0,0,0,.51.49h1.3A1.51,1.51,0,0,1,77,41a1.65,1.65,0,0,1-1.8,1.75Z"/></g></svg>