<svg id="Layer_4" data-name="Layer 4" xmlns="http://www.w3.org/2000/svg" viewBox="0 0 108 68"><defs><style>.cls-1{fill:#6c6bbd;}.cls-2{fill:#eb001b;}.cls-3{fill:#0099df;}</style></defs><path class="cls-1" d="M63.41,52.49H43.7V17.09H63.41Z"/><path class="cls-2" d="M44.92,34.78A22.47,22.47,0,0,1,53.52,17a22.72,22.72,0,0,0-13.91-4.88A22.52,22.52,0,1,0,53.52,52.27a21.51,21.51,0,0,1-8.6-17.49"/><path class="cls-3" d="M90,34.78A22.45,22.45,0,0,1,53.58,52.41a22.28,22.28,0,0,0,8.6-17.78,22.31,22.31,0,0,0-8.6-17.78A22.75,22.75,0,0,1,67.49,12,23,23,0,0,1,90,34.78"/></svg>