<?xml version="1.0" encoding="utf-8"?>
<!-- Generator: Adobe Illustrator 25.0.1, SVG Export Plug-In . SVG Version: 6.00 Build 0)  -->
<svg version="1.1"
	 id="Layer_1" xmlns:cc="http://creativecommons.org/ns#" xmlns:dc="http://purl.org/dc/elements/1.1/" xmlns:rdf="http://www.w3.org/1999/02/22-rdf-syntax-ns#"
	 xmlns="http://www.w3.org/2000/svg" xmlns:xlink="http://www.w3.org/1999/xlink" x="0px" y="0px" viewBox="0 0 199.9 123.6"
	 style="enable-background:new 0 0 199.9 123.6;" xml:space="preserve">
<style type="text/css">
	.st0{fill:#0099DF;}
	.st1{fill:#6C6BBD;}
	.st2{fill:#EB001B;}
</style>
<g transform="translate(-1837.7 -1267.9)">
	<g transform="matrix(3.1437 0 0 3.1437 -1661.1 -866.42)">
		<g transform="matrix(1.25 0 0 -1.25 1176 710.77)">
			<path class="st0" d="M0,0v0.6h-0.2l-0.2-0.4l-0.2,0.4h-0.2V0h0.1v0.5l0.2-0.4h0.1l0.2,0.4V0H0z M-1,0v0.5h0.2v0.1h-0.5V0.5h0.2V0
				H-1z"/>
		</g>
		<path class="st1" d="M1153.4,714h-17.2v-30.9h17.2V714z"/>
		<g transform="matrix(1.25 0 0 -1.25 1137.3 698.59)">
			<path class="st2" d="M0,0c0,5,2.3,9.5,6,12.4c-2.7,2.1-6.1,3.4-9.7,3.4c-8.7,0-15.7-7-15.7-15.7s7-15.7,15.7-15.7
				c3.7,0,7,1.3,9.7,3.4C2.3-9.5,0-5,0,0"/>
		</g>
		<g transform="matrix(1.25 0 0 -1.25 1176.6 698.59)">
			<path class="st0" d="M0,0c0-8.7-7-15.7-15.7-15.7c-3.7,0-7,1.3-9.7,3.4c3.7,2.9,6,7.3,6,12.4s-2.3,9.5-6,12.4
				c2.7,2.1,6.1,3.4,9.7,3.4C-7.1,15.7,0,8.7,0,0"/>
		</g>
	</g>
</g>
</svg>
