<svg id="Layer_1" data-name="Layer 1" xmlns="http://www.w3.org/2000/svg" viewBox="0 0 400.69 81"><defs><style>.cls-1{fill:none;}.cls-2{fill:#ff5f00;}.cls-3{fill:#eb001b;}.cls-4{fill:#f79e1b;}</style></defs><rect class="cls-1" x="-37.97" y="-31.74" width="478.99" height="171.9"/><path d="M134.18,81h-3.05V46h3.05Zm23.25-35a23.86,23.86,0,0,1,7.87,1.22,16.94,16.94,0,0,1,6,3.5A15.38,15.38,0,0,1,175,56.24a20.63,20.63,0,0,1,0,14.52,15.25,15.25,0,0,1-3.77,5.51,16.64,16.64,0,0,1-6,3.5A23.59,23.59,0,0,1,157.43,81H144.65V46Zm-9.72,2.9V78.1h9.72a20.19,20.19,0,0,0,6.75-1,13.56,13.56,0,0,0,4.92-2.94,12.08,12.08,0,0,0,3-4.6,18.3,18.3,0,0,0,0-12,12.27,12.27,0,0,0-3-4.61,13.56,13.56,0,0,0-4.92-2.94,20.47,20.47,0,0,0-6.75-1Zm66.1-3.3a18.9,18.9,0,0,1,4.35.5,17.06,17.06,0,0,1,3.93,1.44,15.49,15.49,0,0,1,3.33,2.26,13.44,13.44,0,0,1,2.53,3l-2.54,1.7A12.64,12.64,0,0,0,223.27,52a13.89,13.89,0,0,0-2.73-1.87,14.06,14.06,0,0,0-3.2-1.19,15.29,15.29,0,0,0-3.53-.41A15.64,15.64,0,0,0,208,49.62a14,14,0,0,0-4.67,3.05,14.21,14.21,0,0,0-3.13,4.73,17,17,0,0,0,0,12.2,14.16,14.16,0,0,0,3.13,4.72A13.65,13.65,0,0,0,208,77.37a15.45,15.45,0,0,0,5.82,1.08,15.7,15.7,0,0,0,3.52-.4,13.68,13.68,0,0,0,3.19-1.18A13.13,13.13,0,0,0,223.24,75a11.9,11.9,0,0,0,2.14-2.5l2.5,1.82a14.59,14.59,0,0,1-2.59,3A16.07,16.07,0,0,1,222,79.5a16.77,16.77,0,0,1-3.88,1.41,18.53,18.53,0,0,1-4.3.49,18.75,18.75,0,0,1-7.12-1.33,16.75,16.75,0,0,1-9.45-9.33,19.92,19.92,0,0,1,0-14.47A17,17,0,0,1,201,50.61a17.32,17.32,0,0,1,5.68-3.69A18.94,18.94,0,0,1,213.81,45.6Zm24.52,15.95a8.73,8.73,0,0,1,1.64-2,8.47,8.47,0,0,1,2-1.39,10.28,10.28,0,0,1,2.3-.8,11.52,11.52,0,0,1,2.4-.26,11.77,11.77,0,0,1,4,.66,9,9,0,0,1,3.14,1.89,8.24,8.24,0,0,1,2,3,10.27,10.27,0,0,1,.72,3.93V81h-2.85V67.45a9.72,9.72,0,0,0-.5-3.2,6.41,6.41,0,0,0-1.48-2.41,6.49,6.49,0,0,0-2.37-1.52,9.1,9.1,0,0,0-3.2-.52,8.52,8.52,0,0,0-3.09.56,7.39,7.39,0,0,0-4.18,4.08,7.91,7.91,0,0,0-.61,3.16V81h-2.85V45h2.85ZM275.2,57.1a10.58,10.58,0,0,1,4.37.89A10.23,10.23,0,0,1,283,60.46a11.63,11.63,0,0,1,2.31,3.8,13.79,13.79,0,0,1,.88,4.84c0,.21,0,.42,0,.61s0,.38,0,.56H266.45a10.05,10.05,0,0,0,.92,3.65,8.83,8.83,0,0,0,2,2.72,8.39,8.39,0,0,0,2.82,1.68,9.68,9.68,0,0,0,3.38.58A10.47,10.47,0,0,0,280,78a12.46,12.46,0,0,0,3.52-2.45l1.53,2a13.73,13.73,0,0,1-2.29,1.87,11.94,11.94,0,0,1-4.83,1.83,19.43,19.43,0,0,1-2.53.17,12.47,12.47,0,0,1-4.75-.88,11,11,0,0,1-6.2-6.32,13.38,13.38,0,0,1-.88-4.92,13.17,13.17,0,0,1,.89-4.89,11.68,11.68,0,0,1,2.45-3.85,11.18,11.18,0,0,1,3.7-2.51A11.77,11.77,0,0,1,275.2,57.1Zm0,2.52a8.5,8.5,0,0,0-3.29.62,8.06,8.06,0,0,0-2.62,1.7,8.61,8.61,0,0,0-1.83,2.58,10.33,10.33,0,0,0-.92,3.3h16.83a10.12,10.12,0,0,0-.83-3.33,8.24,8.24,0,0,0-1.76-2.59,7.8,7.8,0,0,0-5.58-2.28Zm28.47-2.52a12.35,12.35,0,0,1,4.86.94,10.26,10.26,0,0,1,3.81,2.71l-1.85,1.92a10.07,10.07,0,0,0-3.08-2.13,9.31,9.31,0,0,0-3.82-.77,8.88,8.88,0,0,0-3.58.72,8.76,8.76,0,0,0-4.8,5,10.75,10.75,0,0,0,0,7.58,8.71,8.71,0,0,0,1.91,3A8.93,8.93,0,0,0,300,78a9,9,0,0,0,3.58.71,9.34,9.34,0,0,0,3.87-.8,10.62,10.62,0,0,0,3.11-2.13l1.77,2a10.61,10.61,0,0,1-3.82,2.72,13.2,13.2,0,0,1-9.71,0,11.29,11.29,0,0,1-6.3-6.39,12.63,12.63,0,0,1-.89-4.81,12.8,12.8,0,0,1,.89-4.83,11.27,11.27,0,0,1,6.3-6.4A12.56,12.56,0,0,1,303.63,57.1Zm18.25,10.3h3.82l9.9-9.93h3.6L328,68.57,339.4,81h-3.62L325.7,70h-3.82V81H319V45h2.85ZM168.42,33.56v-15c0-5.66-3.6-9.46-9.41-9.51a9.29,9.29,0,0,0-8.42,4.25A8.79,8.79,0,0,0,142.68,9a7.91,7.91,0,0,0-7,3.55v-3h-5.21V33.56h5.26V20.28c0-4.15,2.3-6.36,5.86-6.36s5.2,2.26,5.2,6.32V33.56H152V20.28c0-4.15,2.41-6.36,5.86-6.36s5.26,2.26,5.26,6.32V33.56ZM246.26,9.62h-8.52V2.35h-5.26V9.62h-4.86v4.75h4.86V25.29c0,5.56,2.16,8.87,8.32,8.87a12.25,12.25,0,0,0,6.51-1.85l-1.5-4.46a9.66,9.66,0,0,1-4.61,1.35c-2.61,0-3.46-1.6-3.46-4V14.37h8.52ZM290.68,9a7.08,7.08,0,0,0-6.31,3.5V9.62h-5.16V33.56h5.21V20.13c0-3.95,1.71-6.16,5.11-6.16a8.35,8.35,0,0,1,3.26.61l1.6-4.91A11.12,11.12,0,0,0,290.68,9Zm-67.16,2.5A17.94,17.94,0,0,0,213.75,9c-6.06,0-10,2.9-10,7.66,0,3.91,2.91,6.31,8.27,7.06l2.45.35c2.86.4,4.21,1.15,4.21,2.51,0,1.85-1.9,2.9-5.46,2.9a12.74,12.74,0,0,1-8-2.5l-2.46,4.05a17.24,17.24,0,0,0,10.37,3.11c6.91,0,10.92-3.26,10.92-7.81,0-4.21-3.16-6.42-8.37-7.17l-2.45-.35c-2.25-.3-4.06-.75-4.06-2.35,0-1.75,1.71-2.81,4.56-2.81a15.41,15.41,0,0,1,7.46,2.06ZM363.06,9a7.05,7.05,0,0,0-6.31,3.5V9.62h-5.16V33.56h5.21V20.13c0-3.95,1.7-6.16,5.11-6.16a8.31,8.31,0,0,1,3.25.61l1.61-4.91A11.21,11.21,0,0,0,363.06,9ZM295.94,21.59c0,7.26,5.06,12.57,12.78,12.57a12.5,12.5,0,0,0,8.61-2.86l-2.5-4.2a10.56,10.56,0,0,1-6.27,2.15c-4.15-.05-7.21-3.05-7.21-7.66s3.06-7.62,7.21-7.67a10.58,10.58,0,0,1,6.27,2.16l2.5-4.21A12.55,12.55,0,0,0,308.72,9c-7.72,0-12.78,5.3-12.78,12.57Zm48.79,0v-12h-5.21v2.9A9.09,9.09,0,0,0,332,9c-6.72,0-12,5.25-12,12.57s5.26,12.57,12,12.57a9.07,9.07,0,0,0,7.56-3.51v2.91h5.21Zm-19.39,0c0-4.21,2.76-7.67,7.27-7.67,4.3,0,7.21,3.31,7.21,7.67s-2.91,7.66-7.21,7.66c-4.51,0-7.27-3.46-7.27-7.66ZM262.49,9c-7,0-11.93,5.1-11.93,12.57s5.11,12.57,12.28,12.57a14.51,14.51,0,0,0,9.81-3.36L270.1,27a11.44,11.44,0,0,1-7,2.5c-3.36,0-6.42-1.55-7.17-5.86h17.78c.05-.65.1-1.3.1-2C273.8,14.12,269.2,9,262.49,9Zm-.11,4.65c3.36,0,5.51,2.11,6.07,5.81H256c.55-3.45,2.66-5.81,6.36-5.81Zm130.68,7.92V0h-5.21V12.52A9.07,9.07,0,0,0,380.29,9c-6.71,0-12,5.25-12,12.57s5.26,12.57,12,12.57a9.05,9.05,0,0,0,7.56-3.51v2.91h5.21Zm6.09,9.76a1.53,1.53,0,0,1,.6.12,1.66,1.66,0,0,1,.49.32,1.51,1.51,0,0,1,.33.49,1.45,1.45,0,0,1,.12.59,1.48,1.48,0,0,1-.12.59,1.58,1.58,0,0,1-.33.48,1.51,1.51,0,0,1-.49.33,1.59,1.59,0,0,1-1.21,0,1.56,1.56,0,0,1-.5-.33,1.58,1.58,0,0,1-.33-.48,1.48,1.48,0,0,1-.12-.59,1.45,1.45,0,0,1,.12-.59,1.51,1.51,0,0,1,.33-.49,1.71,1.71,0,0,1,.5-.32A1.54,1.54,0,0,1,399.15,31.35Zm0,2.7a1.18,1.18,0,0,0,.46-.09,1.34,1.34,0,0,0,.37-.25,1.19,1.19,0,0,0,.25-.38,1.18,1.18,0,0,0,.09-.46,1.14,1.14,0,0,0-.09-.46A1.09,1.09,0,0,0,400,32a1.15,1.15,0,0,0-.37-.25,1.18,1.18,0,0,0-.46-.09,1.23,1.23,0,0,0-.47.09,1.19,1.19,0,0,0-.38.25,1.25,1.25,0,0,0-.25.38,1.14,1.14,0,0,0-.09.46,1.18,1.18,0,0,0,.09.46,1.13,1.13,0,0,0,.63.63A1.23,1.23,0,0,0,399.15,34.05Zm.09-1.89a.66.66,0,0,1,.42.12.45.45,0,0,1,0,.62.63.63,0,0,1-.34.14l.47.53h-.37L399,33h-.14v.53h-.3V32.16Zm-.35.26v.38h.34a.33.33,0,0,0,.19,0,.16.16,0,0,0,0-.28.33.33,0,0,0-.19,0ZM373.68,21.59c0-4.21,2.75-7.67,7.26-7.67,4.31,0,7.21,3.31,7.21,7.67s-2.9,7.66-7.21,7.66c-4.51,0-7.26-3.46-7.26-7.66Zm-175.91,0v-12h-5.21v2.9A9.07,9.07,0,0,0,185,9c-6.71,0-12,5.25-12,12.57s5.26,12.57,12,12.57a9.05,9.05,0,0,0,7.56-3.51v2.91h5.21Zm-19.38,0c0-4.21,2.75-7.67,7.26-7.67,4.31,0,7.21,3.31,7.21,7.67s-2.9,7.66-7.21,7.66C181.14,29.25,178.39,25.79,178.39,21.59ZM343.07,79.82h-.45V81h-.22V79.82H342V79.6h1.12ZM344.79,81h-.22V79.85l-.41,1h-.23l-.41-1V81h-.22V79.6h.34l.41,1,.4-1h.34Z"/><rect class="cls-2" x="42.5" y="14.13" width="31.5" height="56.61"/><path class="cls-3" d="M44.5,42.43a35.91,35.91,0,0,1,13.75-28.3,36,36,0,1,0,0,56.6A35.9,35.9,0,0,1,44.5,42.43Z"/><path class="cls-4" d="M113.06,64.74V63.58h.46v-.24h-1.19v.24h.47v1.16Zm2.31,0v-1.4H115l-.42,1-.42-1h-.36v1.4h.25v-1l.4.9h.27l.39-.91v1.06Z"/><path class="cls-4" d="M116.49,42.43a36,36,0,0,1-58.24,28.3,36,36,0,0,0,0-56.6,36,36,0,0,1,58.24,28.3Z"/></svg>