<svg id="Layer_2" data-name="Layer 2" xmlns="http://www.w3.org/2000/svg" viewBox="0 0 108 68"><defs><style>.cls-1{fill:#ff5f00;}.cls-2{fill:#eb001b;}.cls-3{fill:#f79e1b;}</style></defs><path class="cls-1" d="M63.56,52H43.79V16.46H63.56Z"/><path class="cls-2" d="M45,34.41a22.59,22.59,0,0,1,8.63-17.85,22.83,22.83,0,0,0-14-4.89A22.6,22.6,0,1,0,53.63,52,21.61,21.61,0,0,1,45,34.41"/><path class="cls-3" d="M90.25,34.41a22.54,22.54,0,0,1-36.56,17.7,22.38,22.38,0,0,0,8.64-17.85,22.35,22.35,0,0,0-8.64-17.84,22.53,22.53,0,0,1,36.56,18"/></svg>