<svg id="Layer_1" data-name="Layer 1" xmlns="http://www.w3.org/2000/svg" viewBox="0 0 108 68"><defs><style>.cls-1{fill:#00579f;}.cls-2{fill:#faa61a;}</style></defs><g id="g4158"><polygon id="polygon9" class="cls-1" points="47.17 47.57 39.66 47.57 44.36 18.52 51.87 18.52 47.17 47.57"/><path id="path11" class="cls-1" d="M74.43,19.2A18.45,18.45,0,0,0,67.69,18C60.26,18,55,21.92,55,27.58c-.06,4.18,3.75,6.5,6.59,7.89s3.9,2.35,3.9,3.62c0,1.95-2.35,2.85-4.52,2.85a15,15,0,0,1-7-1.55l-1-.46-1,6.52A22.68,22.68,0,0,0,60.26,48c7.89,0,13-3.9,13.09-9.93,0-3.31-2-5.85-6.31-7.92-2.63-1.33-4.24-2.23-4.24-3.59s1.36-2.5,4.33-2.5a12.65,12.65,0,0,1,5.6,1.11l.68.31,1-6.28Z"/><path id="path13" class="cls-1" d="M84.42,37.27l3-8.14c0,.07.61-1.7,1-2.78l.53,2.51s1.42,7,1.73,8.41ZM93.7,18.52H87.89c-1.79,0-3.16.53-3.93,2.41L72.8,47.57h7.88l1.58-4.36h9.65c.22,1,.9,4.36.9,4.36h7l-6.06-29Z"/><path id="path15" class="cls-1" d="M33.38,18.52,26,38.35l-.8-4c-1.36-4.64-5.63-9.68-10.4-12.19l6.75,25.43h8l11.82-29Z"/><path id="path17" class="cls-2" d="M19.18,18.52H7.08L7,19.11c9.43,2.41,15.68,8.23,18.25,15.22L22.58,21c-.43-1.86-1.76-2.39-3.4-2.45Z"/></g></svg>